<svg xmlns="http://www.w3.org/2000/svg" xmlns:xlink="http://www.w3.org/1999/xlink" version="1.1" x="0px" y="0px" viewBox="0 0 100 125" enable-background="new 0 0 100 100" xml:space="preserve"><path d="M82.6,69.1c0-1.5-0.4-2.9-1.1-4.2h8.1v-2.2h-10c-1.4-1.2-3.3-1.9-5.3-1.9c-4.6,0-8.3,3.7-8.3,8.3h-7.2v-3.3h-4.4v-5.9H43.4  V46.6h1.7v-4.4h-6.3v4.4h1.8v17.1h-9.8v5.3h-4.1V59H17v-8.3h-4.4V59H9.3v10.1v7.4c0,5.7,5.9,10.4,13.1,10.4h53.3  c12.5,0,17.5-17.8,17.5-17.8H82.6z"/><text x="0" y="115" fill="#000000" font-size="5px" font-weight="bold" font-family="'Helvetica Neue', Helvetica, Arial-Unicode, Arial, Sans-serif">Created by Maurizio Fusillo</text><text x="0" y="120" fill="#000000" font-size="5px" font-weight="bold" font-family="'Helvetica Neue', Helvetica, Arial-Unicode, Arial, Sans-serif">from the Noun Project</text></svg>